<svg width="33" height="32" viewBox="0 0 33 32" fill="none" xmlns="http://www.w3.org/2000/svg">
<path opacity="0.4" d="M24.875 25.1466H23.8617C22.795 25.1466 21.7817 25.5599 21.035 26.3066L18.755 28.5599C17.715 29.5866 16.0217 29.5866 14.9817 28.5599L12.7017 26.3066C11.955 25.5599 10.9283 25.1466 9.875 25.1466H8.875C6.66167 25.1466 4.875 23.3733 4.875 21.1866V6.63989C4.875 4.45323 6.66167 2.67993 8.875 2.67993H24.875C27.0883 2.67993 28.875 4.45323 28.875 6.63989V21.1866C28.875 23.3599 27.0883 25.1466 24.875 25.1466Z" fill="white"/>
<path d="M14.715 19.3468H11.1417C10.555 19.3468 10.0083 19.0668 9.66166 18.5868C9.32833 18.1334 9.24833 17.5735 9.40833 17.0401C9.87499 15.6135 11.0217 14.8401 12.035 14.1467C13.1017 13.4267 13.7017 12.9734 13.7017 12.2001C13.7017 11.5068 13.1417 10.9468 12.4483 10.9468C11.755 10.9468 11.195 11.5068 11.195 12.2001C11.195 12.7468 10.7417 13.2001 10.195 13.2001C9.64834 13.2001 9.19501 12.7468 9.19501 12.2001C9.19501 10.4134 10.6483 8.94678 12.4483 8.94678C14.2483 8.94678 15.7017 10.4001 15.7017 12.2001C15.7017 14.0801 14.2883 15.0401 13.155 15.8134C12.4483 16.2934 11.7817 16.7468 11.4483 17.3468H14.7017C15.2483 17.3468 15.7017 17.8001 15.7017 18.3468C15.7017 18.8934 15.2617 19.3468 14.715 19.3468Z" fill="white"/>
<path d="M22.2617 19.3467C21.715 19.3467 21.2617 18.8933 21.2617 18.3467V17.4267H18.6483C18.6483 17.4267 18.6483 17.4267 18.635 17.4267C17.9817 17.4267 17.3817 17.08 17.0483 16.52C16.715 15.9467 16.715 15.24 17.0483 14.68C17.955 13.12 19.0083 11.3466 19.9683 9.79996C20.395 9.11996 21.2083 8.81336 21.9683 9.02669C22.7283 9.25336 23.2617 9.94666 23.2483 10.7467V15.44H23.5417C24.0883 15.44 24.5417 15.8934 24.5417 16.44C24.5417 16.9867 24.0883 17.44 23.5417 17.44H23.2617V18.36C23.2617 18.9067 22.8217 19.3467 22.2617 19.3467ZM21.2617 11.52C20.475 12.8 19.6617 14.1733 18.9283 15.4267H21.2617V11.52Z" fill="white"/>
</svg>
