<svg width="20" height="21" viewBox="0 0 20 21" fill="none" xmlns="http://www.w3.org/2000/svg">
<path d="M16.1083 5.23332L10.8833 2.41665C10.3333 2.11665 9.66666 2.11665 9.11666 2.41665L3.89166 5.23332C3.50833 5.44165 3.27499 5.84165 3.27499 6.29998C3.27499 6.74998 3.50833 7.15832 3.89166 7.36665L9.11666 10.1833C9.39166 10.3333 9.69999 10.4083 9.99999 10.4083C10.3 10.4083 10.6083 10.3333 10.8833 10.1833L16.1083 7.36665C16.4917 7.15832 16.725 6.75832 16.725 6.29998C16.725 5.84165 16.4917 5.44165 16.1083 5.23332Z" fill="#5E6F76"/>
<path opacity="0.4" d="M8.25832 11.1583L3.39166 8.72498C3.01666 8.54165 2.58332 8.55831 2.23332 8.77498C1.87499 8.99998 1.66666 9.37498 1.66666 9.79165V14.3833C1.66666 15.175 2.10832 15.8916 2.81666 16.25L7.67499 18.6833C7.84166 18.7666 8.02499 18.8083 8.20832 18.8083C8.42499 18.8083 8.64166 18.75 8.83332 18.6333C9.19166 18.4166 9.39999 18.0333 9.39999 17.6166V13.025C9.40832 12.225 8.96666 11.5083 8.25832 11.1583Z" fill="#5E6F76"/>
<path opacity="0.4" d="M17.7667 8.775C17.4083 8.55833 16.975 8.53333 16.6083 8.72499L11.75 11.1583C11.0417 11.5167 10.6 12.225 10.6 13.025V17.6167C10.6 18.0333 10.8083 18.4167 11.1667 18.6333C11.3583 18.75 11.575 18.8083 11.7917 18.8083C11.975 18.8083 12.1583 18.7667 12.325 18.6833L17.1833 16.25C17.8917 15.8917 18.3333 15.1833 18.3333 14.3833V9.79166C18.3333 9.37499 18.125 9 17.7667 8.775Z" fill="#5E6F76"/>
</svg>
