<svg width="32" height="32" viewBox="0 0 32 32" fill="none" xmlns="http://www.w3.org/2000/svg">
<path opacity="0.4" d="M16 2.66667C8.63621 2.66667 2.66667 8.63621 2.66667 16C2.66667 23.3638 8.63621 29.3333 16 29.3333C23.3638 29.3333 29.3333 23.3638 29.3333 16C29.3333 8.63621 23.3638 2.66668 16 2.66667Z" fill="white"/>
<path d="M10.6267 16.7067L14.6267 20.7067C15.0133 21.0933 15.6533 21.0933 16.04 20.7067C16.4267 20.32 16.4267 19.68 16.04 19.2933L13.7467 17L20.6667 17C21.2133 17 21.6667 16.5467 21.6667 16C21.6667 15.4533 21.2133 15 20.6667 15L13.7467 15L16.04 12.7067C16.4267 12.32 16.4267 11.68 16.04 11.2933C15.84 11.0933 15.5867 11 15.3333 11C15.08 11 14.8267 11.0933 14.6267 11.2933L10.6267 15.2933C10.24 15.68 10.24 16.32 10.6267 16.7067Z" fill="white"/>
</svg>
