<svg width="28" height="28" viewBox="0 0 28 28" fill="none" xmlns="http://www.w3.org/2000/svg">
<path opacity="0.4" d="M25.6666 14C25.6666 7.55664 20.4433 2.33329 14 2.33329C7.55666 2.33329 2.33331 7.55664 2.33331 14C2.33331 20.4433 7.55666 25.6666 14 25.6666C20.4433 25.6666 25.6666 20.4433 25.6666 14Z" fill="#5E6F76"/>
<path d="M13.3817 9.29837L9.88168 12.7984C9.54335 13.1367 9.54335 13.6967 9.88168 14.035C10.22 14.3734 10.78 14.3734 11.1183 14.035L13.125 12.0284L13.125 18.0834C13.125 18.5617 13.5217 18.9584 14 18.9584C14.4783 18.9584 14.875 18.5617 14.875 18.0834L14.875 12.0284L16.8817 14.035C17.22 14.3734 17.78 14.3734 18.1183 14.035C18.2933 13.86 18.375 13.6384 18.375 13.4167C18.375 13.195 18.2933 12.9734 18.1183 12.7984L14.6183 9.29837C14.28 8.96004 13.72 8.96004 13.3817 9.29837Z" fill="#5E6F76"/>
</svg>
