<svg width="24" height="24" viewBox="0 0 24 24" fill="none" xmlns="http://www.w3.org/2000/svg">
<path opacity="0.4" d="M12 22C17.5228 22 22 17.5228 22 12C22 6.47715 17.5228 2 12 2C6.47715 2 2 6.47715 2 12C2 17.5228 6.47715 22 12 22Z" fill="#5E6F76"/>
<path d="M16.03 11.47L13.03 8.47C12.74 8.18 12.26 8.18 11.97 8.47C11.68 8.76 11.68 9.24 11.97 9.53L13.69 11.25H8.5C8.09 11.25 7.75 11.59 7.75 12C7.75 12.41 8.09 12.75 8.5 12.75H13.69L11.97 14.47C11.68 14.76 11.68 15.24 11.97 15.53C12.12 15.68 12.31 15.75 12.5 15.75C12.69 15.75 12.88 15.68 13.03 15.53L16.03 12.53C16.32 12.24 16.32 11.76 16.03 11.47Z" fill="#5E6F76"/>
</svg>
