<svg width="33" height="32" viewBox="0 0 33 32" fill="none" xmlns="http://www.w3.org/2000/svg">
<path d="M22.8333 4.74662V2.66663C22.8333 2.11996 22.38 1.66663 21.8333 1.66663C21.2866 1.66663 20.8333 2.11996 20.8333 2.66663V4.66663H12.1666V2.66663C12.1666 2.11996 11.7133 1.66663 11.1666 1.66663C10.62 1.66663 10.1666 2.11996 10.1666 2.66663V4.74662C6.56665 5.07996 4.81998 7.22662 4.55331 10.4133C4.52665 10.8 4.84665 11.12 5.21998 11.12H27.78C28.1666 11.12 28.4866 10.7866 28.4466 10.4133C28.18 7.22662 26.4333 5.07996 22.8333 4.74662Z" fill="#5E6F76"/>
<path opacity="0.4" d="M27.1667 13.12C27.9 13.12 28.5 13.72 28.5 14.4533V22.6667C28.5 26.6667 26.5 29.3333 21.8333 29.3333H11.1667C6.5 29.3333 4.5 26.6667 4.5 22.6667V14.4533C4.5 13.72 5.1 13.12 5.83333 13.12H27.1667Z" fill="#5E6F76"/>
<path d="M11.8333 20C11.4867 20 11.14 19.8534 10.8867 19.6134C10.6467 19.36 10.5 19.0134 10.5 18.6667C10.5 18.32 10.6467 17.9734 10.8867 17.72C11.26 17.3467 11.8467 17.2267 12.34 17.44C12.5133 17.5067 12.66 17.6 12.78 17.72C13.02 17.9734 13.1667 18.32 13.1667 18.6667C13.1667 19.0134 13.02 19.36 12.78 19.6134C12.5267 19.8534 12.18 20 11.8333 20Z" fill="#5E6F76"/>
<path d="M16.5 20C16.1533 20 15.8066 19.8534 15.5533 19.6134C15.3133 19.36 15.1666 19.0134 15.1666 18.6667C15.1666 18.32 15.3133 17.9734 15.5533 17.72C15.6733 17.6 15.82 17.5067 15.9933 17.44C16.4866 17.2267 17.0733 17.3467 17.4466 17.72C17.6866 17.9734 17.8333 18.32 17.8333 18.6667C17.8333 19.0134 17.6866 19.36 17.4466 19.6134C17.38 19.6667 17.3133 19.72 17.2466 19.7733C17.1666 19.8267 17.0866 19.8667 17.0066 19.8934C16.9266 19.9334 16.8466 19.96 16.7666 19.9734C16.6733 19.9867 16.5933 20 16.5 20Z" fill="#5E6F76"/>
<path d="M21.1667 20.0001C20.82 20.0001 20.4734 19.8534 20.22 19.6134C19.98 19.36 19.8334 19.0134 19.8334 18.6667C19.8334 18.3201 19.98 17.9734 20.22 17.7201C20.3534 17.6001 20.4867 17.5067 20.66 17.44C20.9 17.3334 21.1667 17.3067 21.4334 17.36C21.5134 17.3734 21.5934 17.4 21.6734 17.44C21.7534 17.4667 21.8334 17.5067 21.9134 17.5601C21.98 17.6134 22.0467 17.6667 22.1134 17.7201C22.3534 17.9734 22.5 18.3201 22.5 18.6667C22.5 19.0134 22.3534 19.36 22.1134 19.6134C22.0467 19.6667 21.98 19.72 21.9134 19.7734C21.8334 19.8267 21.7534 19.8667 21.6734 19.8934C21.5934 19.9334 21.5134 19.9601 21.4334 19.9734C21.34 19.9867 21.2467 20.0001 21.1667 20.0001Z" fill="#5E6F76"/>
<path d="M11.8333 24.6667C11.66 24.6667 11.4867 24.6267 11.3267 24.56C11.1533 24.4934 11.02 24.4 10.8867 24.28C10.6467 24.0267 10.5 23.68 10.5 23.3333C10.5 22.9867 10.6467 22.64 10.8867 22.3867C11.02 22.2667 11.1533 22.1733 11.3267 22.1067C11.5667 22 11.8333 21.9733 12.1 22.0267C12.18 22.04 12.26 22.0667 12.34 22.1067C12.42 22.1333 12.5 22.1734 12.58 22.2267C12.6467 22.28 12.7133 22.3334 12.78 22.3867C13.02 22.64 13.1667 22.9867 13.1667 23.3333C13.1667 23.68 13.02 24.0267 12.78 24.28C12.7133 24.3333 12.6467 24.4 12.58 24.44C12.5 24.4933 12.42 24.5334 12.34 24.56C12.26 24.6 12.18 24.6267 12.1 24.64C12.0067 24.6534 11.9267 24.6667 11.8333 24.6667Z" fill="#5E6F76"/>
<path d="M16.5 24.6667C16.1533 24.6667 15.8066 24.52 15.5533 24.28C15.3133 24.0267 15.1666 23.68 15.1666 23.3334C15.1666 22.9867 15.3133 22.6401 15.5533 22.3867C16.0466 21.8934 16.9533 21.8934 17.4466 22.3867C17.6866 22.6401 17.8333 22.9867 17.8333 23.3334C17.8333 23.68 17.6866 24.0267 17.4466 24.28C17.1933 24.52 16.8466 24.6667 16.5 24.6667Z" fill="#5E6F76"/>
<path d="M21.1667 24.6667C20.82 24.6667 20.4734 24.52 20.22 24.28C19.98 24.0267 19.8334 23.68 19.8334 23.3334C19.8334 22.9867 19.98 22.6401 20.22 22.3867C20.7134 21.8934 21.62 21.8934 22.1134 22.3867C22.3534 22.6401 22.5 22.9867 22.5 23.3334C22.5 23.68 22.3534 24.0267 22.1134 24.28C21.86 24.52 21.5134 24.6667 21.1667 24.6667Z" fill="#5E6F76"/>
</svg>
