<svg width="20" height="20" viewBox="0 0 20 20" fill="none" xmlns="http://www.w3.org/2000/svg">
<path opacity="0.4" d="M9.82496 11.8416L7.09996 14.5666C6.79996 14.3 6.50829 14.025 6.22496 13.7416C5.36663 12.875 4.59163 11.9666 3.89996 11.0166C3.21663 10.0666 2.66663 9.11663 2.26663 8.17496C1.86663 7.22496 1.66663 6.31663 1.66663 5.44996C1.66663 4.88329 1.76663 4.34163 1.96663 3.84163C2.16663 3.33329 2.48329 2.86663 2.92496 2.44996C3.45829 1.92496 4.04163 1.66663 4.65829 1.66663C4.89163 1.66663 5.12496 1.71663 5.33329 1.81663C5.54996 1.91663 5.74163 2.06663 5.89163 2.28329L7.82496 5.00829C7.97496 5.21663 8.08329 5.40829 8.15829 5.59163C8.23329 5.76663 8.27496 5.94163 8.27496 6.09996C8.27496 6.29996 8.21663 6.49996 8.09996 6.69163C7.99163 6.88329 7.83329 7.08329 7.63329 7.28329L6.99996 7.94163C6.90829 8.03329 6.86663 8.14163 6.86663 8.27496C6.86663 8.34163 6.87496 8.39996 6.89163 8.46663C6.91663 8.53329 6.94163 8.58329 6.95829 8.63329C7.10829 8.90829 7.36663 9.26663 7.73329 9.69996C8.10829 10.1333 8.50829 10.575 8.94163 11.0166C9.24163 11.3083 9.53329 11.5916 9.82496 11.8416Z" fill="#5E6F76"/>
<path d="M18.3083 15.275C18.3083 15.5083 18.2667 15.75 18.1833 15.9833C18.1583 16.05 18.1333 16.1166 18.1 16.1833C17.9583 16.4833 17.775 16.7666 17.5333 17.0333C17.125 17.4833 16.675 17.8083 16.1667 18.0166C16.1583 18.0166 16.15 18.025 16.1417 18.025C15.65 18.225 15.1167 18.3333 14.5417 18.3333C13.6917 18.3333 12.7833 18.1333 11.825 17.725C10.8667 17.3166 9.90833 16.7666 8.95833 16.075C8.63333 15.8333 8.30833 15.5916 8 15.3333L10.725 12.6083C10.9583 12.7833 11.1667 12.9166 11.3417 13.0083C11.3833 13.025 11.4333 13.05 11.4917 13.075C11.5583 13.1 11.625 13.1083 11.7 13.1083C11.8417 13.1083 11.95 13.0583 12.0417 12.9666L12.675 12.3416C12.8833 12.1333 13.0833 11.975 13.275 11.875C13.4667 11.7583 13.6583 11.7 13.8667 11.7C14.025 11.7 14.1917 11.7333 14.375 11.8083C14.5583 11.8833 14.75 11.9916 14.9583 12.1333L17.7167 14.0916C17.9333 14.2416 18.0833 14.4166 18.175 14.625C18.2583 14.8333 18.3083 15.0416 18.3083 15.275Z" fill="#5E6F76"/>
</svg>
