<svg width="33" height="32" viewBox="0 0 33 32" fill="none" xmlns="http://www.w3.org/2000/svg">
<path opacity="0.4" d="M10.325 27.88C10.285 27.88 10.2317 27.9066 10.1917 27.9066C7.60499 26.6266 5.49832 24.5066 4.20499 21.92C4.20499 21.88 4.23165 21.8266 4.23165 21.7866C5.85832 22.2666 7.53832 22.6266 9.20499 22.9066C9.49832 24.5866 9.84499 26.2533 10.325 27.88Z" fill="#91BF77"/>
<path opacity="0.4" d="M28.045 21.9333C26.725 24.5866 24.525 26.7333 21.845 28.0266C22.3517 26.3333 22.7783 24.6266 23.0583 22.9066C24.7383 22.6266 26.3917 22.2666 28.0183 21.7866C28.005 21.84 28.045 21.8933 28.045 21.9333Z" fill="#91BF77"/>
<path opacity="0.4" d="M28.1517 10.2801C26.4717 9.77339 24.7783 9.36006 23.0583 9.06672C22.7783 7.34672 22.365 5.64006 21.845 3.97339C24.605 5.29339 26.8317 7.52006 28.1517 10.2801Z" fill="#91BF77"/>
<path opacity="0.4" d="M10.325 4.12008C9.84499 5.74674 9.49833 7.40008 9.21833 9.08008C7.49833 9.34674 5.79166 9.77341 4.09833 10.2801C5.39166 7.60008 7.53833 5.40008 10.1917 4.08008C10.2317 4.08008 10.285 4.12008 10.325 4.12008Z" fill="#91BF77"/>
<path d="M20.7783 8.78675C17.685 8.44008 14.565 8.44008 11.4717 8.78675C11.805 6.96008 12.2317 5.13341 12.8317 3.37341C12.8583 3.26675 12.845 3.18675 12.8583 3.08008C13.9117 2.82675 14.9917 2.66675 16.125 2.66675C17.245 2.66675 18.3383 2.82675 19.3783 3.08008C19.3917 3.18675 19.3917 3.26675 19.4183 3.37341C20.0183 5.14675 20.445 6.96008 20.7783 8.78675Z" fill="#91BF77"/>
<path d="M8.91166 20.6533C7.07166 20.32 5.25832 19.8933 3.49832 19.2933C3.39166 19.2667 3.31166 19.28 3.20499 19.2667C2.95166 18.2133 2.79166 17.1333 2.79166 16C2.79166 14.88 2.95166 13.7867 3.20499 12.7467C3.31166 12.7333 3.39166 12.7333 3.49832 12.7067C5.27166 12.12 7.07166 11.68 8.91166 11.3467C8.57832 14.44 8.57832 17.56 8.91166 20.6533Z" fill="#91BF77"/>
<path d="M29.4583 16C29.4583 17.1333 29.2983 18.2133 29.045 19.2667C28.9383 19.28 28.8583 19.2667 28.7517 19.2933C26.9783 19.88 25.165 20.32 23.3383 20.6533C23.685 17.56 23.685 14.44 23.3383 11.3467C25.165 11.68 26.9917 12.1067 28.7517 12.7067C28.8583 12.7333 28.9383 12.7467 29.045 12.7467C29.2983 13.8 29.4583 14.88 29.4583 16Z" fill="#91BF77"/>
<path d="M20.7783 23.2134C20.445 25.0534 20.0183 26.8667 19.4183 28.6267C19.3917 28.7334 19.3917 28.8134 19.3783 28.92C18.3383 29.1734 17.245 29.3334 16.125 29.3334C14.9917 29.3334 13.9117 29.1734 12.8583 28.92C12.845 28.8134 12.8583 28.7334 12.8317 28.6267C12.245 26.8534 11.805 25.0534 11.4717 23.2134C13.0183 23.3867 14.565 23.5067 16.125 23.5067C17.685 23.5067 19.245 23.3867 20.7783 23.2134Z" fill="#91BF77"/>
<path d="M21.1428 21.0179C17.808 21.4386 14.442 21.4386 11.1072 21.0179C10.6865 17.6831 10.6865 14.3171 11.1072 10.9823C14.442 10.5616 17.808 10.5616 21.1428 10.9823C21.5635 14.3171 21.5635 17.6831 21.1428 21.0179Z" fill="#91BF77"/>
</svg>
