<svg width="26" height="26" viewBox="0 0 26 26" fill="none" xmlns="http://www.w3.org/2000/svg">
<path opacity="0.4" d="M23.4542 10.8658C23.0317 10.2592 22.2842 9.91251 21.4283 9.91251H16.9867C16.6942 9.91251 16.4233 9.79335 16.2392 9.57668C16.0442 9.36001 15.9683 9.05668 16.0117 8.74251L16.5642 5.18918C16.8025 4.12751 16.0983 2.93585 15.0367 2.57835C14.0508 2.21001 12.8917 2.70835 12.4258 3.41251L7.85418 10.205L7.72418 10.4217V19.9983L7.88668 20.1608L11.3208 22.815C11.7758 23.27 12.805 23.5192 13.5308 23.5192H17.7558C19.2075 23.5192 20.67 22.425 20.995 21.0925L23.66 12.9783C23.9417 12.2092 23.8658 11.4617 23.4542 10.8658Z" fill="white"/>
<path d="M5.64416 6.91168H4.52832C2.84916 6.91168 2.16666 7.56168 2.16666 9.16502V20.0633C2.16666 21.6667 2.84916 22.3167 4.52832 22.3167H5.64416C7.32332 22.3167 8.00582 21.6667 8.00582 20.0633V9.16502C8.00582 7.56168 7.32332 6.91168 5.64416 6.91168Z" fill="white"/>
</svg>
