<svg width="20" height="21" viewBox="0 0 20 21" fill="none" xmlns="http://www.w3.org/2000/svg">
<path opacity="0.4" d="M17.1833 7.54165C16.3083 3.69165 12.95 1.95831 9.99999 1.95831C9.99999 1.95831 9.99999 1.95831 9.99165 1.95831C7.04999 1.95831 3.68332 3.68331 2.80832 7.53331C1.83332 11.8333 4.46665 15.475 6.84999 17.7666C7.73332 18.6166 8.86665 19.0416 9.99999 19.0416C11.1333 19.0416 12.2667 18.6166 13.1417 17.7666C15.525 15.475 18.1583 11.8416 17.1833 7.54165Z" fill="#5E6F76"/>
<path d="M10 11.7167C11.4497 11.7167 12.625 10.5414 12.625 9.09168C12.625 7.64193 11.4497 6.46667 10 6.46667C8.55025 6.46667 7.375 7.64193 7.375 9.09168C7.375 10.5414 8.55025 11.7167 10 11.7167Z" fill="#5E6F76"/>
</svg>
