<svg width="20" height="20" viewBox="0 0 20 20" fill="none" xmlns="http://www.w3.org/2000/svg">
<path d="M5.83331 4.79163C5.49165 4.79163 5.20831 4.50829 5.20831 4.16663V1.66663C5.20831 1.32496 5.49165 1.04163 5.83331 1.04163C6.17498 1.04163 6.45831 1.32496 6.45831 1.66663V4.16663C6.45831 4.50829 6.17498 4.79163 5.83331 4.79163Z" fill="#5E6F76"/>
<path d="M12.5 4.79163C12.1583 4.79163 11.875 4.50829 11.875 4.16663V1.66663C11.875 1.32496 12.1583 1.04163 12.5 1.04163C12.8417 1.04163 13.125 1.32496 13.125 1.66663V4.16663C13.125 4.50829 12.8417 4.79163 12.5 4.79163Z" fill="#5E6F76"/>
<path opacity="0.4" d="M16.6667 7.08329V14.1666C16.6667 16.6666 15.4167 18.3333 12.5 18.3333H5.83335C2.91669 18.3333 1.66669 16.6666 1.66669 14.1666V7.08329C1.66669 4.58329 2.91669 2.91663 5.83335 2.91663H12.5C15.4167 2.91663 16.6667 4.58329 16.6667 7.08329Z" fill="#5E6F76"/>
<path d="M10.8333 9.79163H5.83331C5.49165 9.79163 5.20831 9.50829 5.20831 9.16663C5.20831 8.82496 5.49165 8.54163 5.83331 8.54163H10.8333C11.175 8.54163 11.4583 8.82496 11.4583 9.16663C11.4583 9.50829 11.175 9.79163 10.8333 9.79163Z" fill="#5E6F76"/>
<path d="M8.33331 13.9584H5.83331C5.49165 13.9584 5.20831 13.675 5.20831 13.3334C5.20831 12.9917 5.49165 12.7084 5.83331 12.7084H8.33331C8.67498 12.7084 8.95831 12.9917 8.95831 13.3334C8.95831 13.675 8.67498 13.9584 8.33331 13.9584Z" fill="#5E6F76"/>
<path d="M17.5 11.3583C16.7584 10.7666 15.8167 10.4166 14.7917 10.4166C13.7667 10.4166 12.8084 10.7749 12.0584 11.3833C11.05 12.1749 10.4167 13.4166 10.4167 14.7916C10.4167 15.6083 10.65 16.3916 11.05 17.0416C11.3584 17.55 11.7583 17.9916 12.2333 18.3333C12.95 18.8583 13.8334 19.1666 14.7917 19.1666C15.9 19.1666 16.9 18.7583 17.6667 18.075C18.0084 17.7916 18.3 17.4416 18.5333 17.0416C18.9333 16.3916 19.1667 15.6083 19.1667 14.7916C19.1667 13.4 18.5167 12.1583 17.5 11.3583ZM14.7917 16.875C14.7917 15.725 13.8584 14.7916 12.7084 14.7916C13.8584 14.7916 14.7917 13.8583 14.7917 12.7083C14.7917 13.8583 15.725 14.7916 16.875 14.7916C15.725 14.7916 14.7917 15.725 14.7917 16.875Z" fill="#5E6F76"/>
</svg>
