<svg width="33" height="32" viewBox="0 0 33 32" fill="none" xmlns="http://www.w3.org/2000/svg">
<path d="M9.70833 7.66675C9.16166 7.66675 8.70833 7.21341 8.70833 6.66675V2.66675C8.70833 2.12008 9.16166 1.66675 9.70833 1.66675C10.255 1.66675 10.7083 2.12008 10.7083 2.66675V6.66675C10.7083 7.21341 10.255 7.66675 9.70833 7.66675Z" fill="white"/>
<path d="M20.375 7.66675C19.8283 7.66675 19.375 7.21341 19.375 6.66675V2.66675C19.375 2.12008 19.8283 1.66675 20.375 1.66675C20.9217 1.66675 21.375 2.12008 21.375 2.66675V6.66675C21.375 7.21341 20.9217 7.66675 20.375 7.66675Z" fill="white"/>
<path opacity="0.4" d="M27.0417 11.3334V22.6667C27.0417 26.6667 25.0417 29.3334 20.375 29.3334H9.70832C5.04166 29.3334 3.04166 26.6667 3.04166 22.6667V11.3334C3.04166 7.33341 5.04166 4.66675 9.70832 4.66675H20.375C25.0417 4.66675 27.0417 7.33341 27.0417 11.3334Z" fill="white"/>
<path d="M17.7083 15.6667H9.70833C9.16166 15.6667 8.70833 15.2134 8.70833 14.6667C8.70833 14.1201 9.16166 13.6667 9.70833 13.6667H17.7083C18.255 13.6667 18.7083 14.1201 18.7083 14.6667C18.7083 15.2134 18.255 15.6667 17.7083 15.6667Z" fill="white"/>
<path d="M13.7083 22.3333H9.70833C9.16166 22.3333 8.70833 21.8799 8.70833 21.3333C8.70833 20.7866 9.16166 20.3333 9.70833 20.3333H13.7083C14.255 20.3333 14.7083 20.7866 14.7083 21.3333C14.7083 21.8799 14.255 22.3333 13.7083 22.3333Z" fill="white"/>
<path d="M28.375 18.1734C27.1883 17.2268 25.6817 16.6667 24.0417 16.6667C22.4017 16.6667 20.8683 17.24 19.6683 18.2134C18.055 19.48 17.0417 21.4667 17.0417 23.6667C17.0417 24.9734 17.415 26.2268 18.055 27.2668C18.5484 28.0801 19.1883 28.7867 19.9483 29.3334C21.095 30.1734 22.5083 30.6667 24.0417 30.6667C25.815 30.6667 27.415 30.0134 28.6417 28.9201C29.1884 28.4668 29.655 27.9068 30.0283 27.2668C30.6683 26.2268 31.0417 24.9734 31.0417 23.6667C31.0417 21.4401 30.0017 19.4534 28.375 18.1734ZM24.0417 27.0001C24.0417 25.1601 22.5483 23.6667 20.7083 23.6667C22.5483 23.6667 24.0417 22.1734 24.0417 20.3334C24.0417 22.1734 25.535 23.6667 27.375 23.6667C25.535 23.6667 24.0417 25.1601 24.0417 27.0001Z" fill="white"/>
</svg>
