<svg width="20" height="20" viewBox="0 0 20 20" fill="none" xmlns="http://www.w3.org/2000/svg">
<path d="M5.83334 4.79175C5.49167 4.79175 5.20834 4.50841 5.20834 4.16675V1.66675C5.20834 1.32508 5.49167 1.04175 5.83334 1.04175C6.175 1.04175 6.45834 1.32508 6.45834 1.66675V4.16675C6.45834 4.50841 6.175 4.79175 5.83334 4.79175Z" fill="#91BF77"/>
<path d="M12.5 4.79175C12.1583 4.79175 11.875 4.50841 11.875 4.16675V1.66675C11.875 1.32508 12.1583 1.04175 12.5 1.04175C12.8417 1.04175 13.125 1.32508 13.125 1.66675V4.16675C13.125 4.50841 12.8417 4.79175 12.5 4.79175Z" fill="#91BF77"/>
<path opacity="0.4" d="M16.6667 7.08342V14.1667C16.6667 16.6667 15.4167 18.3334 12.5 18.3334H5.83333C2.91666 18.3334 1.66666 16.6667 1.66666 14.1667V7.08342C1.66666 4.58341 2.91666 2.91675 5.83333 2.91675H12.5C15.4167 2.91675 16.6667 4.58341 16.6667 7.08342Z" fill="#91BF77"/>
<path d="M10.8333 9.79175H5.83334C5.49167 9.79175 5.20834 9.50841 5.20834 9.16675C5.20834 8.82508 5.49167 8.54175 5.83334 8.54175H10.8333C11.175 8.54175 11.4583 8.82508 11.4583 9.16675C11.4583 9.50841 11.175 9.79175 10.8333 9.79175Z" fill="#91BF77"/>
<path d="M8.33334 13.9583H5.83334C5.49167 13.9583 5.20834 13.6749 5.20834 13.3333C5.20834 12.9916 5.49167 12.7083 5.83334 12.7083H8.33334C8.675 12.7083 8.95834 12.9916 8.95834 13.3333C8.95834 13.6749 8.675 13.9583 8.33334 13.9583Z" fill="#91BF77"/>
<path d="M17.5 11.3584C16.7583 10.7668 15.8167 10.4167 14.7917 10.4167C13.7667 10.4167 12.8083 10.7751 12.0583 11.3834C11.05 12.1751 10.4167 13.4167 10.4167 14.7917C10.4167 15.6084 10.65 16.3918 11.05 17.0418C11.3583 17.5501 11.7583 17.9917 12.2333 18.3334C12.95 18.8584 13.8333 19.1667 14.7917 19.1667C15.9 19.1667 16.9 18.7584 17.6667 18.0751C18.0083 17.7917 18.3 17.4418 18.5333 17.0418C18.9333 16.3918 19.1667 15.6084 19.1667 14.7917C19.1667 13.4001 18.5167 12.1584 17.5 11.3584ZM14.7917 16.8751C14.7917 15.7251 13.8583 14.7917 12.7083 14.7917C13.8583 14.7917 14.7917 13.8584 14.7917 12.7084C14.7917 13.8584 15.725 14.7917 16.875 14.7917C15.725 14.7917 14.7917 15.7251 14.7917 16.8751Z" fill="#91BF77"/>
</svg>
