<svg width="28" height="28" viewBox="0 0 28 28" fill="none" xmlns="http://www.w3.org/2000/svg">
<path opacity="0.4" d="M22.5633 16.905L21.3967 14.9683C21.1517 14.5367 20.93 13.72 20.93 13.2417V10.29C20.93 6.48666 17.8383 3.38333 14.0233 3.38333C10.2083 3.38333 7.11667 6.48666 7.11667 10.29V13.2417C7.11667 13.72 6.895 14.5367 6.65 14.9567L5.47167 16.905C5.005 17.6867 4.9 18.55 5.19167 19.3433C5.47167 20.125 6.13667 20.7317 7 21.0233C9.26333 21.7933 11.6433 22.1667 14.0233 22.1667C16.4033 22.1667 18.7833 21.7933 21.0467 21.035C21.8633 20.7667 22.4933 20.1483 22.7967 19.3433C23.1 18.5383 23.0183 17.6517 22.5633 16.905Z" fill="#5E6F76"/>
<path d="M16.625 3.87334C15.82 3.55834 14.945 3.38334 14.0233 3.38334C13.1133 3.38334 12.2383 3.54668 11.4333 3.87334C11.935 2.92834 12.9267 2.33334 14.0233 2.33334C15.1317 2.33334 16.1117 2.92834 16.625 3.87334Z" fill="#5E6F76"/>
<path d="M17.3017 23.345C16.8117 24.6983 15.5167 25.6667 14 25.6667C13.0783 25.6667 12.1683 25.2933 11.5267 24.6283C11.1533 24.2783 10.8733 23.8117 10.71 23.3333C10.8617 23.3567 11.0133 23.3683 11.1767 23.3917C11.445 23.4267 11.725 23.4617 12.005 23.485C12.67 23.5433 13.3467 23.5783 14.0233 23.5783C14.6883 23.5783 15.3533 23.5433 16.0067 23.485C16.2517 23.4617 16.4967 23.45 16.73 23.415C16.9167 23.3917 17.1033 23.3683 17.3017 23.345Z" fill="#5E6F76"/>
<circle cx="21" cy="8" r="4" fill="#FF801A"/>
</svg>
