<svg width="33" height="32" viewBox="0 0 33 32" fill="none" xmlns="http://www.w3.org/2000/svg">
<path opacity="0.4" d="M15.2917 26.68C21.9264 26.68 27.305 21.3014 27.305 14.6667C27.305 8.03187 21.9264 2.65332 15.2917 2.65332C8.65687 2.65332 3.27832 8.03187 3.27832 14.6667C3.27832 21.3014 8.65687 26.68 15.2917 26.68Z" fill="#91BF77"/>
<path d="M19.2916 13.6667H11.2916C10.745 13.6667 10.2916 13.2134 10.2916 12.6667C10.2916 12.1201 10.745 11.6667 11.2916 11.6667H19.2916C19.8383 11.6667 20.2916 12.1201 20.2916 12.6667C20.2916 13.2134 19.8383 13.6667 19.2916 13.6667Z" fill="#91BF77"/>
<path d="M15.2916 17.6667H11.2916C10.745 17.6667 10.2916 17.2134 10.2916 16.6667C10.2916 16.1201 10.745 15.6667 11.2916 15.6667H15.2916C15.8383 15.6667 16.2916 16.1201 16.2916 16.6667C16.2916 17.2134 15.8383 17.6667 15.2916 17.6667Z" fill="#91BF77"/>
<path d="M29.9451 25.2667C29.5051 24.4533 28.5718 24 27.3184 24C26.3718 24 25.5584 24.3867 25.0784 25.0533C24.5984 25.72 24.4918 26.6133 24.7851 27.5067C25.3584 29.24 26.3584 29.6267 26.9051 29.6933C26.9851 29.7067 27.0651 29.7067 27.1584 29.7067C27.7451 29.7067 28.6518 29.4533 29.5318 28.1333C30.2384 27.1067 30.3718 26.08 29.9451 25.2667Z" fill="#91BF77"/>
</svg>
