<svg width="24" height="24" viewBox="0 0 24 24" fill="none" xmlns="http://www.w3.org/2000/svg">
<path opacity="0.4" d="M9.42001 2.15994L3.92001 4.21994C2.87001 4.60994 2.01001 5.85993 2.01001 6.97993V15.0799C2.01001 15.8899 2.54002 16.9599 3.19002 17.4399L8.69002 21.5499C9.66002 22.2799 11.25 22.2799 12.22 21.5499L17.72 17.4399C18.37 16.9499 18.9 15.8899 18.9 15.0799V6.97993C18.9 5.85993 18.04 4.60994 16.99 4.21994L11.49 2.15994C10.92 1.94994 9.99001 1.94994 9.42001 2.15994Z" fill="#5E6F76"/>
<path d="M19.26 6.76001H12.41C12.21 6.76001 12.02 6.77002 11.84 6.77002C10.12 6.87002 9.66003 7.50002 9.66003 9.46002V9.85002C9.66003 10.2642 9.99582 10.6 10.41 10.6H21.25C21.6642 10.6 22 10.2642 22 9.85002V9.46002C22 7.30002 21.45 6.76001 19.26 6.76001Z" fill="#5E6F76"/>
<path d="M10.42 11.7C10.0058 11.7 9.66998 12.0357 9.66998 12.45V14.5399C9.66998 16.6999 10.22 17.25 12.41 17.25H19.26C21.41 17.25 21.98 16.73 22 14.66V12.45C22 12.0357 21.6642 11.7 21.25 11.7H10.42ZM13.27 15.47H12.02C11.72 15.47 11.48 15.2299 11.48 14.9299C11.48 14.6299 11.72 14.39 12.02 14.39H13.27C13.57 14.39 13.81 14.6299 13.81 14.9299C13.81 15.2299 13.57 15.47 13.27 15.47ZM17.32 15.47H14.83C14.53 15.47 14.29 15.2299 14.29 14.9299C14.29 14.6299 14.53 14.39 14.83 14.39H17.32C17.62 14.39 17.86 14.6299 17.86 14.9299C17.87 15.2299 17.62 15.47 17.32 15.47Z" fill="#5E6F76"/>
</svg>
