<svg width="27" height="26" viewBox="0 0 27 26" fill="none" xmlns="http://www.w3.org/2000/svg">
<path opacity="0.4" d="M12.3733 2.23167L6.41501 4.46334C5.27751 4.89667 4.34584 6.24001 4.34584 7.46417V16.2392C4.34584 17.1167 4.92001 18.2758 5.62417 18.7958L11.5825 23.2483C12.6333 24.0392 14.3558 24.0392 15.4067 23.2483L21.365 18.7958C22.0692 18.265 22.6433 17.1167 22.6433 16.2392V7.46417C22.6433 6.25084 21.7117 4.89667 20.5742 4.47417L14.6158 2.24251C14.0092 2.00417 12.9908 2.00417 12.3733 2.23167Z" fill="#5E6F76"/>
<path d="M12.0483 15.4158C11.8425 15.4158 11.6367 15.34 11.4742 15.1775L9.72999 13.4333C9.41583 13.1192 9.41583 12.5992 9.72999 12.285C10.0442 11.9708 10.5642 11.9708 10.8783 12.285L12.0483 13.455L16.1325 9.37082C16.4467 9.05665 16.9667 9.05665 17.2808 9.37082C17.595 9.68498 17.595 10.205 17.2808 10.5192L12.6225 15.1775C12.46 15.34 12.2542 15.4158 12.0483 15.4158Z" fill="#5E6F76"/>
</svg>
