<svg width="20" height="21" viewBox="0 0 20 21" fill="none" xmlns="http://www.w3.org/2000/svg">
<path opacity="0.4" d="M13.7417 18.8334H6.25834C3.33334 18.8334 2.70001 17.1584 2.94168 15.1084L3.69167 8.85841C3.88334 7.24175 4.16668 5.91675 7.00001 5.91675H13C15.8334 5.91675 16.1167 7.24175 16.3084 8.85841L16.9334 14.0667L17.0583 15.1084C17.0667 15.1751 17.075 15.2417 17.0833 15.3084C17.2583 17.2667 16.575 18.8334 13.7417 18.8334Z" fill="#5E6F76"/>
<path d="M13.3334 7.79175C12.9917 7.79175 12.7084 7.50841 12.7084 7.16675V4.25008C12.7084 3.35008 12.15 2.79175 11.25 2.79175H8.75002C7.85002 2.79175 7.29169 3.35008 7.29169 4.25008V7.16675C7.29169 7.50841 7.00835 7.79175 6.66669 7.79175C6.32502 7.79175 6.04169 7.50841 6.04169 7.16675V4.25008C6.04169 2.65841 7.15835 1.54175 8.75002 1.54175H11.25C12.8417 1.54175 13.9584 2.65841 13.9584 4.25008V7.16675C13.9584 7.50841 13.675 7.79175 13.3334 7.79175Z" fill="#5E6F76"/>
<path d="M17.0834 15.3083C17.0584 15.3166 17.0334 15.3167 17.0084 15.3167H6.66669C6.32502 15.3167 6.04169 15.0333 6.04169 14.6917C6.04169 14.3417 6.32502 14.0667 6.66669 14.0667H16.9334L17.0584 15.1083C17.0667 15.175 17.075 15.2416 17.0834 15.3083Z" fill="#5E6F76"/>
</svg>
