<svg width="25" height="25" viewBox="0 0 25 25" fill="none" xmlns="http://www.w3.org/2000/svg">
<path opacity="0.4" d="M6.24001 16.5C6.35001 16.01 6.15001 15.31 5.80001 14.96L3.37001 12.53C2.61001 11.77 2.31001 10.96 2.53001 10.26C2.76001 9.56 3.47001 9.08 4.53001 8.9L7.65001 8.38C8.10001 8.3 8.65001 7.9 8.86001 7.49L10.58 4.04C11.08 3.05 11.76 2.5 12.5 2.5C13.24 2.5 13.92 3.05 14.42 4.04L16.14 7.49C16.27 7.75 16.54 8 16.83 8.17L6.06001 18.94C5.92001 19.08 5.68001 18.95 5.72001 18.75L6.24001 16.5Z" fill="#FF801A"/>
<path d="M19.2 14.96C18.84 15.32 18.64 16.01 18.76 16.5L19.45 19.51C19.74 20.76 19.56 21.7 18.94 22.15C18.69 22.33 18.39 22.42 18.04 22.42C17.53 22.42 16.93 22.23 16.27 21.84L13.34 20.1C12.88 19.83 12.12 19.83 11.66 20.1L8.72999 21.84C7.61999 22.49 6.66999 22.6 6.05999 22.15C5.82999 21.98 5.65999 21.75 5.54999 21.45L17.71 9.28999C18.17 8.82999 18.82 8.61999 19.45 8.72999L20.46 8.89999C21.52 9.07999 22.23 9.55999 22.46 10.26C22.68 10.96 22.38 11.77 21.62 12.53L19.2 14.96Z" fill="#FF801A"/>
</svg>
